<?xml version="1.0" encoding="UTF-8"?>
<!DOCTYPE svg PUBLIC "-//W3C//DTD SVG 1.1//EN" "http://www.w3.org/Graphics/SVG/1.1/DTD/svg11.dtd">
<!-- Creator: CorelDRAW -->
<svg xmlns="http://www.w3.org/2000/svg" xml:space="preserve" width="2400px" height="3600px" style="shape-rendering:geometricPrecision; text-rendering:geometricPrecision; image-rendering:optimizeQuality; fill-rule:evenodd; clip-rule:evenodd"
viewBox="0 0 2400 3394.29"
 xmlns:xlink="http://www.w3.org/1999/xlink"
 version="1.1"
 xmlns:xodm="http://www.corel.com/coreldraw/odm/2003">
 <defs>
  <style type="text/css">
   <![CDATA[
    .fil0 {fill:black;fill-rule:nonzero}
   ]]>
  </style>
 </defs>
 <g id="Слой_x0020_1">
  <metadata id="CorelCorpID_0Corel-Layer"/>
  <g id="_141286912">
   <g id="_2627521145856">
    <polygon id="_141410840" class="fil0" points="175.296,1288.69 585.257,1288.69 943.073,1874.8 1039.21,1874.8 645.435,1237.72 1039.21,600.638 943.073,600.638 585.257,1186.76 175.296,1186.76 175.296,90.9623 79.4206,90.9623 79.4206,1874.8 175.296,1874.8 "/>
    <path id="_141410624" class="fil0" d="M1853.45 90.9691c-20.7771,0 -37.9966,7.23429 -51.5451,21.6571 -13.5897,14.4434 -20.3737,32.7326 -20.3737,54.7931 0,22.0811 6.784,40.3703 20.3737,54.7931 13.5486,14.4491 30.768,21.6571 51.5451,21.6571 20.7566,0 37.9497,-7.208 51.5451,-21.6571 13.568,-14.4229 20.3726,-32.712 20.3726,-54.7931 0,-22.0606 -6.80457,-40.3497 -20.3726,-54.7931 -13.5954,-14.4229 -30.7886,-21.6571 -51.5451,-21.6571z"/>
    <path id="_141410744" class="fil0" d="M1901.4 600.645l-95.896 0 0 1274.15 95.896 0 0 -1274.15zm-95.896 1441.67l0 12.9509 0.282286 0 0 777.056c0,56.0503 -10.0114,108.731 -29.9817,157.977 -19.9966,49.2869 -47.584,92.6286 -82.6891,129.986 -35.2,37.384 -75.9257,66.6731 -122.28,87.928 -46.368,21.2343 -95.896,31.8377 -148.632,31.8377 -52.728,0 -102.303,-10.6034 -148.631,-31.8377 -46.3737,-21.2549 -87.1474,-50.544 -122.253,-87.928 -35.1794,-37.3577 -62.7611,-80.6994 -82.7109,-129.986 -19.9966,-49.2457 -29.9817,-101.927 -29.9817,-157.977l0 -790.007 -95.9017 0 0 790.007c0,56.0503 -9.98514,108.731 -29.9623,157.977 -19.9966,49.2869 -47.5577,92.6286 -82.7097,129.986 -35.1531,37.384 -75.9326,66.6731 -122.254,87.928 -46.3749,21.2343 -95.8823,31.8377 -148.631,31.8377 -52.7349,0 -102.283,-10.6034 -148.631,-31.8377 -46.3749,-21.2549 -87.128,-50.544 -122.261,-87.928 -35.1726,-37.3577 -62.7394,-80.6994 -82.7097,-129.986 -19.9966,-49.2457 -29.9611,-101.927 -29.9611,-157.977l0 -790.007 -95.896 0 0 790.007c0,69.6869 12.7611,135.486 38.3531,197.494 25.544,62.0274 59.9154,115.946 103.09,161.797 43.1463,45.8971 93.8583,82.448 152.234,109.613 58.3029,27.1303 120.216,40.7463 185.781,40.7463 100.69,0 189.761,-32.2343 267.301,-96.824 77.5189,-64.5417 131.438,-147.803 161.823,-249.751 15.9623,50.9737 37.9291,97.7314 65.9143,140.166 27.944,42.4811 60.7234,78.9851 98.296,109.585 37.5257,30.5737 79.1131,54.3897 124.674,71.3543 45.5474,16.9577 93.8651,25.4697 145.026,25.4697 65.5177,0 127.424,-13.616 185.801,-40.7463 58.3097,-27.1646 109.067,-63.7154 152.241,-109.613 43.12,-45.8503 77.4663,-99.7691 103.083,-161.797 25.5509,-62.008 38.36,-127.807 38.36,-197.494l0 -790.007 -0.289143 0 -95.896 0z"/>
    <path id="_141411056" class="fil0" d="M2336.76 1554.32c-13.5954,-14.4229 -30.7954,-21.6571 -51.5451,-21.6571 -20.8034,0 -37.976,7.23429 -51.5451,21.6571 -13.5954,14.4503 -20.3794,32.7383 -20.3794,54.8 0,22.0811 6.784,40.3703 20.3794,54.7931 13.5691,14.4423 30.7417,21.6571 51.5451,21.6571 20.7497,0 37.9497,-7.21486 51.5451,-21.6571 13.5417,-14.4229 20.3463,-32.712 20.3463,-54.7931 0,-22.0617 -6.80457,-40.3497 -20.3463,-54.8z"/>
    <polygon id="_141411608" class="fil0" points="2237.26,3316.51 2333.13,3316.51 2333.13,2042.33 2237.26,2042.33 "/>
   </g>
  </g>
 </g>
</svg>
