<svg xmlns="http://www.w3.org/2000/svg" width="2400" height="3600" viewBox="0 0 2400 3394.29" shape-rendering="geometricPrecision" text-rendering="geometricPrecision" image-rendering="optimizeQuality" fill-rule="evenodd" clip-rule="evenodd"><defs><style>.fil0{fill:#000;fill-rule:nonzero}</style></defs><g id="Слой_x0020_1"><g id="_141286912"><g id="_2627521145856"><path id="_141410840" class="fil0" d="M175.296 1288.69h409.961l357.816 586.11h96.137l-393.775-637.08 393.775-637.082h-96.137L585.257 1186.76H175.296V90.962H79.421V1874.8h95.875z"/><path id="_141410624" class="fil0" d="M1853.45 90.97c-20.777 0-37.997 7.233-51.545 21.656-13.59 14.444-20.374 32.733-20.374 54.793 0 22.081 6.784 40.37 20.374 54.793 13.549 14.45 30.768 21.658 51.545 21.658 20.757 0 37.95-7.208 51.545-21.658 13.568-14.422 20.373-32.712 20.373-54.793 0-22.06-6.805-40.35-20.373-54.793-13.595-14.423-30.788-21.657-51.545-21.657z"/><path id="_141410744" class="fil0" d="M1901.4 600.645h-95.896v1274.15h95.896V600.645zm-95.896 1441.67v12.95h.282v777.057c0 56.05-10.011 108.73-29.981 157.977-19.997 49.287-47.584 92.628-82.69 129.986-35.2 37.384-75.925 66.673-122.28 87.928-46.368 21.234-95.896 31.838-148.632 31.838-52.728 0-102.303-10.604-148.63-31.838-46.374-21.255-87.148-50.544-122.254-87.928-35.179-37.358-62.76-80.7-82.71-129.986-19.997-49.246-29.982-101.927-29.982-157.977v-790.007h-95.902v790.007c0 56.05-9.985 108.73-29.962 157.977-19.997 49.287-47.558 92.628-82.71 129.986-35.153 37.384-75.932 66.673-122.254 87.928-46.375 21.234-95.882 31.838-148.63 31.838-52.736 0-102.284-10.604-148.632-31.838-46.375-21.255-87.128-50.544-122.26-87.928-35.173-37.358-62.74-80.7-82.71-129.986-19.997-49.246-29.962-101.927-29.962-157.977v-790.007H79.71v790.007c0 69.687 12.761 135.486 38.353 197.494 25.544 62.027 59.916 115.946 103.09 161.797 43.147 45.897 93.859 82.448 152.234 109.613 58.303 27.13 120.216 40.746 185.781 40.746 100.69 0 189.761-32.234 267.301-96.824 77.52-64.542 131.438-147.803 161.823-249.75 15.963 50.973 37.93 97.73 65.915 140.165 27.944 42.481 60.723 78.985 98.296 109.585 37.525 30.574 79.113 54.39 124.674 71.354 45.547 16.958 93.865 25.47 145.026 25.47 65.517 0 127.424-13.616 185.8-40.746 58.31-27.165 109.068-63.716 152.242-109.613 43.12-45.85 77.466-99.77 103.083-161.797 25.55-62.008 38.36-127.807 38.36-197.494v-790.007h-96.185z"/><path id="_141411056" class="fil0" d="M2336.76 1554.32c-13.595-14.423-30.795-21.657-51.545-21.657-20.803 0-37.976 7.234-51.545 21.657-13.596 14.45-20.38 32.738-20.38 54.8 0 22.081 6.784 40.37 20.38 54.793 13.569 14.442 30.742 21.657 51.545 21.657 20.75 0 37.95-7.215 51.545-21.657 13.542-14.423 20.346-32.712 20.346-54.793 0-22.062-6.804-40.35-20.346-54.8z"/><path id="_141411608" class="fil0" d="M2237.26 3316.51h95.87V2042.33h-95.87z"/></g></g></g></svg>