<svg width="28" height="28" fill="none" xmlns="http://www.w3.org/2000/svg"><path d="M20.42 0H7.58C3.4 0 0 3.4 0 7.58v12.84C0 24.6 3.4 28 7.58 28h12.84C24.6 28 28 24.6 28 20.42V7.58C28 3.4 24.6 0 20.42 0zM14 21.656c-4.222 0-7.656-3.434-7.656-7.656 0-4.222 3.434-7.656 7.656-7.656 4.222 0 7.656 3.434 7.656 7.656 0 4.222-3.434 7.656-7.656 7.656zM21.84 8.15a2.265 2.265 0 01-2.263-2.263 2.265 2.265 0 012.262-2.262 2.265 2.265 0 012.263 2.262 2.265 2.265 0 01-2.263 2.263z" fill="#363636"/><path d="M14 7.985A6.021 6.021 0 007.985 14 6.022 6.022 0 0014 20.015 6.021 6.021 0 0020.015 14 6.021 6.021 0 0014 7.985zm7.84-2.718a.622.622 0 10.001 1.243.622.622 0 00-.002-1.243z" fill="#363636"/></svg>