<svg width="28" height="28" viewBox="0 0 28 28" fill="none" xmlns="http://www.w3.org/2000/svg">
<path d="M20.4207 0H7.57935C3.40002 0 0 3.40002 0 7.57935V20.4209C0 24.6 3.40002 28 7.57935 28H20.4209C24.6 28 28 24.6 28 20.4209V7.57935C28 3.40002 24.6 0 20.4207 0V0ZM14 21.656C9.77838 21.656 6.34396 18.2216 6.34396 14C6.34396 9.77838 9.77838 6.34396 14 6.34396C18.2216 6.34396 21.656 9.77838 21.656 14C21.656 18.2216 18.2216 21.656 14 21.656ZM21.8391 8.14951C20.5916 8.14951 19.5768 7.1348 19.5768 5.88724C19.5768 4.63968 20.5916 3.62476 21.8391 3.62476C23.0867 3.62476 24.1016 4.63968 24.1016 5.88724C24.1016 7.1348 23.0867 8.14951 21.8391 8.14951Z" fill="#363636"/>
<path d="M13.9999 7.98535C10.6836 7.98535 7.98535 10.6834 7.98535 13.9999C7.98535 17.3162 10.6836 20.0145 13.9999 20.0145C17.3164 20.0145 20.0145 17.3162 20.0145 13.9999C20.0145 10.6834 17.3164 7.98535 13.9999 7.98535Z" fill="#363636"/>
<path d="M21.8395 5.2666C21.4973 5.2666 21.2188 5.54517 21.2188 5.88739C21.2188 6.22961 21.4973 6.50818 21.8395 6.50818C22.182 6.50818 22.4605 6.22983 22.4605 5.88739C22.4605 5.54495 22.182 5.2666 21.8395 5.2666Z" fill="#363636"/>
</svg>
