<svg width="48" height="28" fill="none" xmlns="http://www.w3.org/2000/svg"><path d="M39.831 16.056c-.776-.98-.554-1.416 0-2.292.01-.01 6.417-8.862 7.077-11.864l.004-.002C47.24.804 46.912 0 45.326 0h-5.249c-1.336 0-1.952.69-2.282 1.462 0 0-2.672 6.396-6.452 10.542-1.22 1.198-1.784 1.582-2.45 1.582-.328 0-.838-.384-.838-1.478V1.898C28.055.586 27.681 0 26.575 0h-8.252c-.838 0-1.336.612-1.336 1.182 0 1.244 1.89 1.53 2.086 5.03v7.594c0 1.664-.302 1.97-.972 1.97-1.784 0-6.115-6.422-8.68-13.772C8.901.578 8.395.002 7.05.002H1.8C.301.002 0 .692 0 1.464 0 2.828 1.784 9.61 8.296 18.57 12.636 24.686 18.75 28 24.31 28c3.342 0 3.75-.736 3.75-2.002 0-5.844-.302-6.396 1.372-6.396.776 0 2.112.384 5.232 3.334C38.23 26.434 38.815 28 40.811 28h5.249c1.496 0 2.254-.736 1.818-2.188-.998-3.054-7.743-9.336-8.047-9.756z" fill="#363636"/></svg>